<svg width="900" height="520" viewBox="0 0 900 520" fill="none" xmlns="http://www.w3.org/2000/svg">
  <!-- Terminal window -->
  <rect width="900" height="520" rx="10" fill="#0c0c0c"/>

  <!-- Title bar -->
  <rect width="900" height="36" rx="10" fill="#1c1c1c"/>
  <rect y="26" width="900" height="10" fill="#1c1c1c"/>

  <!-- Window controls -->
  <circle cx="20" cy="18" r="6" fill="#ff5f56"/>
  <circle cx="40" cy="18" r="6" fill="#ffbd2e"/>
  <circle cx="60" cy="18" r="6" fill="#27c93f"/>

  <!-- Title -->
  <text x="450" y="23" text-anchor="middle" fill="#666666" font-family="'SF Mono', 'Fira Code', Consolas, monospace" font-size="12">~/supertools — benchmark</text>

  <!-- Content area -->
  <g transform="translate(24, 52)" font-family="'SF Mono', 'Fira Code', Consolas, monospace">
    <!-- Output header -->
    <text y="16" fill="#ffffff" font-size="14" font-weight="600">BENCHMARK RESULTS</text>
    <line x1="0" y1="32" x2="852" y2="32" stroke="#333333" stroke-width="1"/>

    <!-- Table header -->
    <g transform="translate(0, 56)">
      <text x="0" y="0" fill="#888888" font-size="11">BENCHMARK</text>
      <text x="200" y="0" fill="#f87171" font-size="11">NATIVE</text>
      <text x="400" y="0" fill="#fbbf24" font-size="11">ANTHROPIC BETA *</text>
      <text x="620" y="0" fill="#4ade80" font-size="11">SUPERTOOLS</text>
    </g>

    <!-- Separator -->
    <line x1="0" y1="72" x2="852" y2="72" stroke="#333333" stroke-width="1"/>

    <!-- Row 1: Simple -->
    <g transform="translate(0, 100)">
      <text x="0" y="0" fill="#e4e4e7" font-size="12">Simple (1 tool)</text>
      <text x="200" y="0" fill="#a1a1aa" font-size="12"> 6037ms  2c  1387tok</text>
      <text x="400" y="0" fill="#a1a1aa" font-size="12">12078ms  2c  7189tok</text>
      <text x="620" y="0" fill="#a1a1aa" font-size="12"> 3247ms  1c   561tok</text>
    </g>

    <!-- Row 2: Parallel -->
    <g transform="translate(0, 128)">
      <text x="0" y="0" fill="#e4e4e7" font-size="12">Parallel (2 tools)</text>
      <text x="200" y="0" fill="#a1a1aa" font-size="12"> 7888ms  2c  1751tok</text>
      <text x="400" y="0" fill="#a1a1aa" font-size="12">14205ms  2c  7769tok</text>
      <text x="620" y="0" fill="#a1a1aa" font-size="12"> 2886ms  1c   580tok</text>
    </g>

    <!-- Row 3: Sequential -->
    <g transform="translate(0, 156)">
      <text x="0" y="0" fill="#e4e4e7" font-size="12">Sequential (dependent)</text>
      <text x="200" y="0" fill="#a1a1aa" font-size="12"> 8977ms  3c  2406tok</text>
      <text x="400" y="0" fill="#a1a1aa" font-size="12">17450ms  3c  7838tok</text>
      <text x="620" y="0" fill="#a1a1aa" font-size="12"> 3321ms  1c   608tok</text>
    </g>

    <!-- Row 4: Complex -->
    <g transform="translate(0, 184)">
      <text x="0" y="0" fill="#e4e4e7" font-size="12">Complex (logic + agg)</text>
      <text x="200" y="0" fill="#a1a1aa" font-size="12">11302ms  3c  2771tok</text>
      <text x="400" y="0" fill="#a1a1aa" font-size="12">19867ms  3c  8136tok</text>
      <text x="620" y="0" fill="#a1a1aa" font-size="12"> 4180ms  1c   677tok</text>
    </g>

    <!-- Separator -->
    <line x1="0" y1="204" x2="852" y2="204" stroke="#333333" stroke-width="1"/>

    <!-- Total row -->
    <g transform="translate(0, 232)">
      <text x="0" y="0" fill="#ffffff" font-size="12" font-weight="600">TOTAL</text>
      <text x="200" y="0" fill="#f87171" font-size="12" font-weight="500">34.2s  10c  8315tok</text>
      <text x="400" y="0" fill="#fbbf24" font-size="12" font-weight="500">63.6s  10c 30932tok</text>
      <text x="620" y="0" fill="#4ade80" font-size="12" font-weight="500">13.6s   4c  2426tok</text>
    </g>

    <!-- Results section -->
    <line x1="0" y1="260" x2="852" y2="260" stroke="#333333" stroke-width="1"/>

    <!-- Supertools vs Native -->
    <text y="292" fill="#ffffff" font-size="12" font-weight="600">SUPERTOOLS vs NATIVE</text>

    <g transform="translate(0, 316)">
      <text x="0" y="0" fill="#888888" font-size="12">Time</text>
      <text x="100" y="0" fill="#4ade80" font-size="12" font-weight="600">2.5x faster</text>
    </g>

    <g transform="translate(220, 316)">
      <text x="0" y="0" fill="#888888" font-size="12">Tokens</text>
      <text x="80" y="0" fill="#4ade80" font-size="12" font-weight="600">71% fewer</text>
    </g>

    <g transform="translate(420, 316)">
      <text x="0" y="0" fill="#888888" font-size="12">LLM Calls</text>
      <text x="100" y="0" fill="#4ade80" font-size="12" font-weight="600">60% fewer</text>
    </g>

    <!-- Supertools vs Anthropic Beta -->
    <line x1="0" y1="344" x2="852" y2="344" stroke="#333333" stroke-width="1"/>
    <text y="376" fill="#ffffff" font-size="12" font-weight="600">SUPERTOOLS vs ANTHROPIC BETA</text>

    <g transform="translate(0, 400)">
      <text x="0" y="0" fill="#888888" font-size="12">Time</text>
      <text x="100" y="0" fill="#4ade80" font-size="12" font-weight="600">4.7x faster</text>
    </g>

    <g transform="translate(220, 400)">
      <text x="0" y="0" fill="#888888" font-size="12">Tokens</text>
      <text x="80" y="0" fill="#4ade80" font-size="12" font-weight="600">92% fewer</text>
    </g>

    <!-- Footnote -->
    <line x1="0" y1="432" x2="852" y2="432" stroke="#333333" stroke-width="1"/>
    <text y="456" fill="#666666" font-size="10">* Anthropic Beta code_execution showed unexpectedly high token usage and latency.</text>
    <text y="470" fill="#666666" font-size="10">  This may be due to implementation issues or the feature being in beta.</text>
  </g>
</svg>
