<svg width="900" height="580" viewBox="0 0 900 580" fill="none" xmlns="http://www.w3.org/2000/svg">
  <!-- Terminal window -->
  <rect width="900" height="580" rx="10" fill="#0c0c0c"/>

  <!-- Title bar -->
  <rect width="900" height="36" rx="10" fill="#1c1c1c"/>
  <rect y="26" width="900" height="10" fill="#1c1c1c"/>

  <!-- Window controls -->
  <circle cx="20" cy="18" r="6" fill="#ff5f56"/>
  <circle cx="40" cy="18" r="6" fill="#ffbd2e"/>
  <circle cx="60" cy="18" r="6" fill="#27c93f"/>

  <!-- Title -->
  <text x="450" y="23" text-anchor="middle" fill="#666666" font-family="'SF Mono', 'Fira Code', Consolas, monospace" font-size="12">~/supertools — benchmark</text>

  <!-- Content area -->
  <g transform="translate(24, 52)" font-family="'SF Mono', 'Fira Code', Consolas, monospace">
    <!-- Output header -->
    <text y="16" fill="#ffffff" font-size="14" font-weight="600">BENCHMARK RESULTS</text>
    <line x1="0" y1="32" x2="852" y2="32" stroke="#333333" stroke-width="1"/>

    <!-- Table header -->
    <g transform="translate(0, 56)">
      <text x="0" y="0" fill="#888888" font-size="11">BENCHMARK</text>
      <text x="200" y="0" fill="#f87171" font-size="11">NATIVE</text>
      <text x="400" y="0" fill="#fbbf24" font-size="11">ANTHROPIC BETA *</text>
      <text x="620" y="0" fill="#4ade80" font-size="11">SUPERTOOLS</text>
    </g>

    <!-- Separator -->
    <line x1="0" y1="72" x2="852" y2="72" stroke="#333333" stroke-width="1"/>

    <!-- Row 1: Simple -->
    <g transform="translate(0, 100)">
      <text x="0" y="0" fill="#e4e4e7" font-size="12">Simple (1 tool)</text>
      <text x="200" y="0" fill="#a1a1aa" font-size="12"> 5604ms  2c  1578tok</text>
      <text x="400" y="0" fill="#a1a1aa" font-size="12">11684ms  2c  7324tok</text>
      <text x="620" y="0" fill="#a1a1aa" font-size="12"> 3206ms  1c   586tok</text>
    </g>

    <!-- Row 2: Medium -->
    <g transform="translate(0, 128)">
      <text x="0" y="0" fill="#e4e4e7" font-size="12">Medium (3 tools)</text>
      <text x="200" y="0" fill="#a1a1aa" font-size="12"> 9865ms  3c  2790tok</text>
      <text x="400" y="0" fill="#a1a1aa" font-size="12">14768ms  3c  7606tok</text>
      <text x="620" y="0" fill="#a1a1aa" font-size="12"> 3270ms  1c   655tok</text>
    </g>

    <!-- Row 3: Sequential -->
    <g transform="translate(0, 156)">
      <text x="0" y="0" fill="#e4e4e7" font-size="12">Sequential (5 tools)</text>
      <text x="200" y="0" fill="#a1a1aa" font-size="12"> 9792ms  3c  2993tok</text>
      <text x="400" y="0" fill="#a1a1aa" font-size="12">15892ms  3c  7741tok</text>
      <text x="620" y="0" fill="#a1a1aa" font-size="12"> 3446ms  1c   638tok</text>
    </g>

    <!-- Row 4: Heavy -->
    <g transform="translate(0, 184)">
      <text x="0" y="0" fill="#e4e4e7" font-size="12">Heavy (10+ tools)</text>
      <text x="200" y="0" fill="#a1a1aa" font-size="12">16201ms  3c  4679tok</text>
      <text x="400" y="0" fill="#a1a1aa" font-size="12">25270ms  3c  9515tok</text>
      <text x="620" y="0" fill="#a1a1aa" font-size="12"> 4332ms  1c   743tok</text>
    </g>

    <!-- Row 5: Insane - highlighted -->
    <g transform="translate(0, 212)">
      <text x="0" y="0" fill="#e4e4e7" font-size="12">Insane (30+ tools)</text>
      <text x="200" y="0" fill="#f87171" font-size="12">22483ms  4c  8419tok</text>
      <text x="400" y="0" fill="#fbbf24" font-size="12">77475ms 32c  9824tok</text>
      <text x="620" y="0" fill="#4ade80" font-size="12"> 4957ms  1c   780tok</text>
    </g>

    <!-- Separator -->
    <line x1="0" y1="232" x2="852" y2="232" stroke="#333333" stroke-width="1"/>

    <!-- Total row -->
    <g transform="translate(0, 260)">
      <text x="0" y="0" fill="#ffffff" font-size="12" font-weight="600">TOTAL</text>
      <text x="200" y="0" fill="#f87171" font-size="12" font-weight="500">63.9s  15c 20459tok</text>
      <text x="400" y="0" fill="#fbbf24" font-size="12" font-weight="500">145.1s 43c 42010tok</text>
      <text x="620" y="0" fill="#4ade80" font-size="12" font-weight="500">19.2s   5c  3402tok</text>
    </g>

    <!-- Results section -->
    <line x1="0" y1="288" x2="852" y2="288" stroke="#333333" stroke-width="1"/>

    <!-- Supertools vs Native -->
    <text y="320" fill="#ffffff" font-size="12" font-weight="600">SUPERTOOLS vs NATIVE</text>

    <g transform="translate(0, 344)">
      <text x="0" y="0" fill="#888888" font-size="12">Time</text>
      <text x="100" y="0" fill="#4ade80" font-size="12" font-weight="600">3.3x faster</text>
    </g>

    <g transform="translate(220, 344)">
      <text x="0" y="0" fill="#888888" font-size="12">Tokens</text>
      <text x="80" y="0" fill="#4ade80" font-size="12" font-weight="600">83% fewer</text>
    </g>

    <g transform="translate(420, 344)">
      <text x="0" y="0" fill="#888888" font-size="12">LLM Calls</text>
      <text x="100" y="0" fill="#4ade80" font-size="12" font-weight="600">67% fewer</text>
    </g>

    <!-- Supertools vs Anthropic Beta -->
    <line x1="0" y1="372" x2="852" y2="372" stroke="#333333" stroke-width="1"/>
    <text y="404" fill="#ffffff" font-size="12" font-weight="600">SUPERTOOLS vs ANTHROPIC BETA</text>

    <g transform="translate(0, 428)">
      <text x="0" y="0" fill="#888888" font-size="12">Time</text>
      <text x="100" y="0" fill="#4ade80" font-size="12" font-weight="600">7.6x faster</text>
    </g>

    <g transform="translate(220, 428)">
      <text x="0" y="0" fill="#888888" font-size="12">Tokens</text>
      <text x="80" y="0" fill="#4ade80" font-size="12" font-weight="600">92% fewer</text>
    </g>

    <g transform="translate(420, 428)">
      <text x="0" y="0" fill="#888888" font-size="12">LLM Calls</text>
      <text x="100" y="0" fill="#4ade80" font-size="12" font-weight="600">88% fewer</text>
    </g>

    <!-- Note -->
    <text y="480" fill="#666666" font-size="10">* Anthropic Beta code_execution requires API round-trip per tool call (32 calls = 32 round-trips = 77s)</text>
  </g>
</svg>
